<?xml version="1.0" encoding="UTF-8"?>
<svg id="Ebene_1" xmlns="http://www.w3.org/2000/svg" version="1.1" viewBox="0 0 54 54">
  <!-- Generator: Adobe Illustrator 29.8.4, SVG Export Plug-In . SVG Version: 2.1.1 Build 6)  -->
  <defs>
    <style>
      .st0 {
        fill-opacity: .1;
      }

      .st0, .st1 {
        fill: #005cc5;
      }
    </style>
  </defs>
  <path class="st0" d="M38.6,0H15.4C6.9,0,0,6.9,0,15.4v23.1c0,8.5,6.9,15.4,15.4,15.4h23.1c8.5,0,15.4-6.9,15.4-15.4V15.4c0-8.5-6.9-15.4-15.4-15.4h0Z"/>
  <g>
    <polygon class="st1" points="10.1 15.5 10.8 15.5 26.3 15.5 26.3 12.9 7.2 12.9 7.2 15.5 10.1 15.5"/>
    <polygon class="st1" points="10.3 38.5 10 38.5 7.2 38.5 7.2 41.1 26.3 41.1 26.3 38.5 10.3 38.5"/>
    <polygon class="st1" points="10.1 28.3 10.7 28.3 24.5 28.3 24.5 25.7 10.4 25.7 10.1 25.7 7.2 25.7 7.2 28.3 10.1 28.3"/>
    <path class="st1" d="M46.8,12.9h-11.3c-.9,4.4-1.4,9-1.4,13.7h0c0,4.9.5,9.8,1.5,14.4h11.2V12.9Z"/>
  </g>
</svg>